TITLE "MOTHER"
PERFORMER "Keiichi Suzuki (鈴木慶一)"
REM GENRE "Game"
REM DATE "2004"
REM DISCID 9E11CB0C
FILE "Keiichi Suzuki (鈴木慶一) - MOTHER.flac" WAVE
  TRACK 01 AUDIO
    TITLE "Pollyanna (I Believe In You)"
    ISRC JPSR08910900
    INDEX 01 00:00:00
  TRACK 02 AUDIO
    TITLE "Bein' Friends"
    ISRC JPSR08910910
    INDEX 01 03:42:27
  TRACK 03 AUDIO
    TITLE "The Paradise Line"
    ISRC JPSR08910920
    INDEX 01 08:56:23
  TRACK 04 AUDIO
    TITLE "Magicant"
    ISRC JPSR08910930
    INDEX 00 12:39:34
    INDEX 01 12:40:45
  TRACK 05 AUDIO
    TITLE "Wisdom Of The World"
    ISRC JPSR08910940
    INDEX 00 17:00:15
    INDEX 01 17:02:34
  TRACK 06 AUDIO
    TITLE "Flying Man"
    ISRC JPSR08910950
    INDEX 01 21:44:65
  TRACK 07 AUDIO
    TITLE "Snow Man"
    ISRC JPSR08910960
    INDEX 01 26:34:53
  TRACK 08 AUDIO
    TITLE "All That I Needed (Was You)"
    ISRC JPSR08910970
    INDEX 00 30:24:62
    INDEX 01 30:26:45
  TRACK 09 AUDIO
    TITLE "Fallin' Love, and"
    ISRC JPSR08910980
    INDEX 01 35:09:64
  TRACK 10 AUDIO
    TITLE "Eight Melodies"
    ISRC JPSR08910990
    INDEX 00 41:26:20
    INDEX 01 41:28:30
  TRACK 11 AUDIO
    TITLE "The World Of MOTHER (Extended Version)"
    ISRC JPSR08930169
    INDEX 00 47:10:09
    INDEX 01 47:14:30
  TRACK 12 AUDIO
    TITLE "Smiles And Tears (Demo Track)"
    INDEX 00 71:03:47
    INDEX 01 71:07:72
